<svg xmlns="http://www.w3.org/2000/svg" xmlns:xlink="http://www.w3.org/1999/xlink" viewBox="0 0 107.12 120.22"><defs><style>.cls-1{fill:none;}.cls-2{clip-path:url(#clip-path);}.cls-3{fill:#01a89e;}.cls-4{fill:#fff;}.cls-5{clip-path:url(#clip-path-2);}.cls-6{fill:url(#Degradado_sin_nombre);}</style><clipPath id="clip-path" transform="translate(0 13.1)"><rect class="cls-1" x="1.01" y="1.01" width="105.1" height="105.1" rx="52.55"/></clipPath><clipPath id="clip-path-2" transform="translate(0 13.1)"><path class="cls-1" d="M35.15,57.58c-.27-2.57-2.19-4.47-4.3-4.25s-3.6,2.48-3.33,5.05A5.67,5.67,0,0,0,27.93,60c-.19.87-1.11,2.5-5.26,2.5H22.2s-.72,0-.57,2.2S23.38,94,23.38,94s.19,1.12,1,1.13h0c.8,0,.89-1.3.89-1.3l.16-18.68a30.87,30.87,0,0,1,.8-6.05c.94-4.2,2.15-5.77,3.23-7.12a3.41,3.41,0,0,0,2.33.66C33.94,62.41,35.42,60.15,35.15,57.58Z"/></clipPath><linearGradient id="Degradado_sin_nombre" x1="35.18" y1="-657.42" x2="21.61" y2="-657.42" gradientTransform="matrix(1, 0, 0, -1, 0, -583.2)" gradientUnits="userSpaceOnUse"><stop offset="0" stop-color="#f6f6f6"/><stop offset="1" stop-color="#c6c6c6"/></linearGradient></defs><g id="Capa_2" data-name="Capa 2"><g id="Capa_1-2" data-name="Capa 1"><g id="Capa_2-2" data-name="Capa 2"><g id="Capa_1-2-2" data-name="Capa 1-2"><g class="cls-2"><rect class="cls-3" x="1.01" y="14.11" width="105.1" height="105.1"/><path class="cls-4" d="M64.68-10a2.77,2.77,0,0,0-1.33-.25H60.3a.69.69,0,0,1-.48-.13.83.83,0,0,1-.22-.45l-.45-1.6a.9.9,0,0,0-.87-.67h-9.4a.9.9,0,0,0-.87.67c-.15.53-.3,1.06-.44,1.59a1,1,0,0,1-.22.45.72.72,0,0,1-.49.13h-3.1a2.77,2.77,0,0,0-1.33.25,1.31,1.31,0,0,0-.7,1.39c.17.68.94.91,1.59,1L46.71-7a.93.93,0,0,1,.76.89,6.91,6.91,0,0,0,.19,2.52h0a.9.9,0,0,0,.82.53H58.62a.87.87,0,0,0,.83-.53h0a6.9,6.9,0,0,0,.2-2.52A.9.9,0,0,1,60.41-7l3.39-.56c.64-.11,1.41-.34,1.58-1A1.31,1.31,0,0,0,64.68-10Z" transform="translate(0 13.1)"/><path class="cls-4" d="M52.47,59.23h0a16.11,16.11,0,0,1-7.64-1.12,16.77,16.77,0,0,1-5.22-4.77l-2.78-3.4c-.14-.16-.25-.31-.38-.47C30,41.32,37.63,36.64,37.63,36.64A5.25,5.25,0,0,1,36.37,34a29.2,29.2,0,0,1,.57-13.37,8.64,8.64,0,0,0-7.29-3.17c-3.55.17-6.78,1.91-9.85,3.6-2.06,1.14-4.26,2.42-5.15,4.51a9,9,0,0,0-.27,4.73,47.09,47.09,0,0,0,2.3,9.29,3.44,3.44,0,0,0,1.12,1.77c.87.59,2.09.36,3.12.66a4.22,4.22,0,0,1,2.69,3.58c.24,1.53,0,3.09.24,4.62a9.32,9.32,0,0,0,.33,1.46c.45.57,1.7,1.63,4.44,1L29,52.6a4.6,4.6,0,0,1,1.69-.55h.46c2.65,0,4.9,2.32,5.22,5.39a5.91,5.91,0,0,1-3,6c-.73.54-2,1.93-.86,4.65h0l1.25,2.36c1.08,2,2.86,4.4,5.2,3.92a6.09,6.09,0,0,0,2.74-1.77,26.68,26.68,0,0,1,8.9-5.31A6.19,6.19,0,0,0,53.5,65.7v-5C53.53,59.16,52.47,59.23,52.47,59.23Zm-5.4,6.34a6.89,6.89,0,0,1-3.14,1.8,22.12,22.12,0,0,1-2.42.65,1.74,1.74,0,0,1-1.19,0,1.85,1.85,0,0,1-.68-.76A29.51,29.51,0,0,1,38,63.92a2.9,2.9,0,0,1-.35-1.8,2,2,0,0,1,1.15-1.33,4.19,4.19,0,0,1,3.89-.25c.77.39,1.39,1,2.15,1.44.58.31,1.23.5,1.79.84A1.65,1.65,0,0,1,47.54,65a1.67,1.67,0,0,1-.42.6Z" transform="translate(0 13.1)"/><path class="cls-4" d="M62.39,11.07a2.15,2.15,0,0,0-1.22-.22H58.91a.52.52,0,0,1-.43-.12.88.88,0,0,1-.17-.41L58,8.94a.76.76,0,0,0-.74-.58h-7.4a.76.76,0,0,0-.74.58c-.11.47-.22.93-.34,1.39a.88.88,0,0,1-.17.41.52.52,0,0,1-.43.12H45.93a2.18,2.18,0,0,0-1.23.22,1.26,1.26,0,0,0-.55,1.26c.14.63.75.83,1.26.93l2.67.51a.76.76,0,0,1,.62.71,8.33,8.33,0,0,0,.16,2.39h0a.74.74,0,0,0,.71.47h8a.75.75,0,0,0,.71-.47h0a8,8,0,0,0,.16-2.39.78.78,0,0,1,.62-.71l2.67-.51c.51-.1,1.13-.3,1.26-.93A1.25,1.25,0,0,0,62.39,11.07Z" transform="translate(0 13.1)"/><path class="cls-4" d="M63.59.87a2.62,2.62,0,0,0-1.2-.22H59.64A.63.63,0,0,1,59.2.53.82.82,0,0,1,59,.15l-.4-1.44a.81.81,0,0,0-.79-.6H49.29a.81.81,0,0,0-.79.6c-.13.48-.26,1-.4,1.43a.81.81,0,0,1-.19.41.61.61,0,0,1-.45.12H44.71a2.62,2.62,0,0,0-1.2.22,1.17,1.17,0,0,0-.63,1.26c.16.62.85.82,1.43.92l3.06.51a.8.8,0,0,1,.68.79,6.26,6.26,0,0,0,.18,2.28h0a.79.79,0,0,0,.74.47h9.19a.81.81,0,0,0,.74-.48h0a6.26,6.26,0,0,0,.18-2.28.8.8,0,0,1,.68-.79l3.06-.51c.58-.1,1.28-.3,1.43-.92A1.19,1.19,0,0,0,63.59.87Z" transform="translate(0 13.1)"/><path class="cls-4" d="M65.09,16.77a7.28,7.28,0,0,1-4.62,1.79H46.6A7.3,7.3,0,0,1,42,16.77c-2.11-1.82-6.27,6.34-4.36,17A4,4,0,0,0,38.76,36l.26.25a1.44,1.44,0,0,1,.44,1.14v.31a1.29,1.29,0,0,0,.46,1.07l2.25,1.91a3.09,3.09,0,0,1,1.25,2.5.84.84,0,0,0,.17.55l2.36,3a3.91,3.91,0,0,1,.73,2.63,1.49,1.49,0,0,0,.4,1.1l3.42,3.71,1.66,2.12a7.85,7.85,0,0,0,.67.74,1.05,1.05,0,0,0,1.44,0,6.68,6.68,0,0,0,.67-.74l1.66-2.12L60,50.52a1.46,1.46,0,0,0,.39-1.14,3.6,3.6,0,0,1,.73-2.59l2.36-3a.86.86,0,0,0,.17-.56,3,3,0,0,1,1.06-2.34l2.44-2.06a1.26,1.26,0,0,0,.46-1.07v-.31A1.45,1.45,0,0,1,68,36.26l.3-.26a4,4,0,0,0,1.16-2.2C71.36,23.11,67.21,15,65.09,16.77ZM45.21,39a1.93,1.93,0,0,1-2.12-1.69,2.17,2.17,0,0,1,4.23,0A1.94,1.94,0,0,1,45.21,39ZM46,43.11a1.9,1.9,0,0,1,3.7,0,1.9,1.9,0,0,1-3.7,0Zm3.85,6.43A1.18,1.18,0,0,1,49,48.13a1.18,1.18,0,0,1,2.33.26,1.32,1.32,0,0,1-1.41,1.15Zm7.3,0a1.18,1.18,0,0,1-.89-1.41,1.18,1.18,0,0,1,2.33.26,1.32,1.32,0,0,1-1.41,1.15Zm2-5A1.51,1.51,0,1,1,61,43.11a1.69,1.69,0,0,1-1.82,1.47ZM61.86,39a1.93,1.93,0,0,1-2.12-1.69,2.17,2.17,0,0,1,4.23,0A1.93,1.93,0,0,1,61.86,39Z" transform="translate(0 13.1)"/><g class="cls-5"><path class="cls-6" d="M35.15,57.58c-.27-2.57-2.19-4.47-4.3-4.25s-3.6,2.48-3.33,5.05A5.67,5.67,0,0,0,27.93,60c-.19.87-1.11,2.5-5.26,2.5H22.2s-.72,0-.57,2.2S23.38,94,23.38,94s.19,1.12,1,1.13h0c.8,0,.89-1.3.89-1.3l.16-18.68a30.87,30.87,0,0,1,.8-6.05c.94-4.2,2.15-5.77,3.23-7.12a3.41,3.41,0,0,0,2.33.66C33.94,62.41,35.42,60.15,35.15,57.58Z" transform="translate(0 13.1)"/></g><path class="cls-4" d="M29.65,69.64a5.08,5.08,0,0,1-.6-2.53h0c0-.6-.11-2-.81-1.45-.88.68-1.64,6.21-1.64,6.21h0c-.13,1-.23,2.14-.29,3.28l-.16,18.66v.06c-.07,1-.63,2.07-1.72,2.07a2,2,0,0,1-1.86-1.82V94c0-.28-1.6-27.19-1.75-29.34A3.59,3.59,0,0,1,21.34,62a1.18,1.18,0,0,1,.83-.42H23a5,5,0,0,0-2-1.84,3.1,3.1,0,0,0-2.84.09C14,61.7,14.8,65,16.5,68.64A31.9,31.9,0,0,1,19,76.37a64.11,64.11,0,0,1,.76,8.18q.54,11,1.07,22H28q-.16-14.55-.33-29V76.8c0-.86.07-1.67.14-2.44a2.21,2.21,0,0,1,1-1.19A2.37,2.37,0,0,0,30,71.63,2.94,2.94,0,0,0,29.65,69.64Z" transform="translate(0 13.1)"/><path class="cls-4" d="M88.91,59.06c-2.89-1.3-2.87,2-6,.38l-.36-.21a1.62,1.62,0,0,1-.76-1.29,5.7,5.7,0,0,0,.06-.58,4.89,4.89,0,1,0-7.32,4.21,5.89,5.89,0,0,1,2.08,1.89c.12.2.24.41.35.64h0c.09.19.19.38.28.59.84,1.9.9,3,.63,3.62a5,5,0,0,1-.48,1.29,2.86,2.86,0,0,0-.36,2,2.42,2.42,0,0,0,1.22,1.54,2.21,2.21,0,0,1,1,1.19c.07.77.12,1.58.14,2.44v2.45Q79.16,92.87,79,106.5h7.21q.57-11.35,1.15-22.72a64.12,64.12,0,0,1,.77-8.18,31.82,31.82,0,0,1,2.47-7.73C92.28,64.24,93.07,60.94,88.91,59.06Z" transform="translate(0 13.1)"/><path class="cls-1" d="M68.31,60.79a4.19,4.19,0,0,0-3.89-.25c-.76.39-1.39,1-2.15,1.44-.58.31-1.23.5-1.79.84A1.68,1.68,0,0,0,60,65.57a6.75,6.75,0,0,0,3.14,1.8,22.57,22.57,0,0,0,2.41.65,1.35,1.35,0,0,0,1.87-.76,31.44,31.44,0,0,0,1.7-3.32,3,3,0,0,0,.35-1.8A2,2,0,0,0,68.31,60.79Z" transform="translate(0 13.1)"/><path class="cls-4" d="M92.41,25.6c-.89-2.09-3.08-3.37-5.14-4.51-3.08-1.69-6.3-3.43-9.86-3.6a9.61,9.61,0,0,0-4.32.83h0l-.45.22h0l-.42.23h0a3,3,0,0,0-.38.24h0l-.34.25-.08.07a3.11,3.11,0,0,0-.28.23l-.12.12a2.09,2.09,0,0,0-.22.2l-.17.19-.15.16c-.1.12-.19.24-.28.37h0A29.19,29.19,0,0,1,70.69,34a5.49,5.49,0,0,1-.17.7v0a5.17,5.17,0,0,1-1.07,1.86h0S76.79,41.14,70.93,49l-.3.4h0c-.12.16-.25.32-.38.47q-1.38,1.71-2.78,3.4a16.77,16.77,0,0,1-5.22,4.77,7.17,7.17,0,0,1-.69.3l-.11,0c-.22.09-.45.16-.67.23h-.14c-.23.07-.46.13-.7.18h-.08l-.7.14h-.08a6.06,6.06,0,0,0-.73.09h-.14a3,3,0,0,0-.73.06H54.61s-1.06-.07-1.06,1.44v5a6.19,6.19,0,0,0,2.87,1.59,26.56,26.56,0,0,1,8.91,5.31A6.1,6.1,0,0,0,68,74.39c2.34.48,4.13-1.89,5.2-3.92L75.59,66a2.4,2.4,0,0,0-.21-2.41A5.27,5.27,0,0,0,74,62.49a5.94,5.94,0,1,1,5.92-10.3,6.06,6.06,0,0,1,1.27,1,.8.8,0,0,0,1.12,0,1.14,1.14,0,0,0,.15-.23,11.22,11.22,0,0,0,.78-2.67c.21-1.53,0-3.09.23-4.62a4.27,4.27,0,0,1,2.69-3.58c1-.3,2.25-.07,3.12-.66a3.24,3.24,0,0,0,1.12-1.77,47.09,47.09,0,0,0,2.3-9.29A8.75,8.75,0,0,0,92.41,25.6ZM69.12,63.92a31.44,31.44,0,0,1-1.7,3.32,1.35,1.35,0,0,1-1.87.76,22.57,22.57,0,0,1-2.41-.65A6.77,6.77,0,0,1,60,65.57a1.88,1.88,0,0,1-.54-1.15,1.92,1.92,0,0,1,1-1.6c.56-.34,1.21-.53,1.79-.84.76-.42,1.39-1,2.15-1.44a4.19,4.19,0,0,1,3.89.25,2,2,0,0,1,1.16,1.33A3,3,0,0,1,69.12,63.92Z" transform="translate(0 13.1)"/></g><path class="cls-4" d="M53.56,1a52.55,52.55,0,0,1,52.55,52.55h0A52.56,52.56,0,1,1,1,53.56H1A52.55,52.55,0,0,1,53.54,1h0m0-1a53.56,53.56,0,1,0,53.56,53.56h0A53.61,53.61,0,0,0,53.56,0Z" transform="translate(0 13.1)"/></g></g></g></g></svg>